<svg width="32" height="32" viewBox="0 0 32 32" fill="none" xmlns="http://www.w3.org/2000/svg">
<path fill-rule="evenodd" clip-rule="evenodd" d="M32 16.0045C32 7.16886 24.8381 0 16 0C7.1619 0 0 7.16886 0 16.0045C0 24.8401 7.1619 32 16 32C24.8381 32 32 24.8401 32 16.0045ZM9.86891 16.2644C9.86891 12.6262 12.7462 9.76757 16.3406 9.76757C18.0885 9.76757 19.6123 10.4755 20.7328 11.5867C20.8583 11.7121 20.8583 11.8376 20.7328 11.963L19.5406 13.2445C19.4331 13.3699 19.2896 13.3699 19.1641 13.2624C18.4112 12.5903 17.479 12.1781 16.3227 12.1781C14.1266 12.1781 12.4056 13.9255 12.4056 16.2644C12.4056 18.5853 14.1266 20.3237 16.3227 20.3237C17.479 20.3237 18.4112 19.9115 19.1641 19.2484C19.2896 19.1409 19.4331 19.1409 19.5406 19.2663L20.7328 20.5388C20.8583 20.6642 20.8583 20.7897 20.7328 20.9151C19.6123 22.0353 18.0885 22.7342 16.3406 22.7342C12.7462 22.7342 9.86891 19.8757 9.86891 16.2644Z" fill="#353732"/>
</svg>
