<svg width="33" height="20" viewBox="0 0 33 20" fill="none" xmlns="http://www.w3.org/2000/svg">
<path d="M32.106 7.54624L26.13 0.683968C25.3098 -0.205586 24.0209 -0.205586 23.2007 0.556889C22.3804 1.44644 22.3804 2.84431 23.0835 3.73387L26.4816 7.67332H2.10915C0.9374 7.67332 0 8.68996 0 9.96075C0 11.2315 0.9374 12.2482 2.10915 12.2482H26.5987L23.2007 16.1876C22.3804 17.0772 22.4976 18.475 23.3178 19.3646C23.6694 19.7458 24.2552 20 24.7239 20C25.3098 20 25.7785 19.7458 26.2472 19.3646L32.2231 12.5023C33.2777 10.9774 33.2777 8.94411 32.106 7.54624Z" fill="#575445"/>
</svg>
